<?xml version="1.0" standalone="no"?>
<!DOCTYPE svg PUBLIC "-//W3C//DTD SVG 1.1//EN" "http://www.w3.org/Graphics/SVG/1.1/DTD/svg11.dtd" >
<svg>
<metadata>
Created by FontForge 20120731 at Wed Sep 25 15:09:07 2013
 By Stefan Warting
Modern and elegant sans serif free font.
</metadata>
<defs>
<font id="Dekar-Light" horiz-adv-x="509" >
  <font-face 
    font-family="Dekar Light"
    font-weight="300"
    font-stretch="normal"
    units-per-em="1000"
    panose-1="2 0 0 0 0 0 0 0 0 0"
    ascent="750"
    descent="-250"
    x-height="369"
    cap-height="701"
    bbox="-54 -222.128 813 826"
    underline-thickness="50"
    underline-position="-50"
    unicode-range="U+0020-20AC"
  />
<missing-glyph horiz-adv-x="238" 
 />
    <glyph glyph-name=".notdef" horiz-adv-x="238" 
 />
    <glyph glyph-name="b" unicode="b" horiz-adv-x="464" 
d="M50 702h16v-282c26 51 89 73 143 77c22 1 45 1 66 -2c67 -10 141 -47 141 -124v-249c0 -65 -52 -101 -109 -117c-48 -13 -100 -13 -148 0c-37 10 -72 30 -93 65v-70h-16v122v580zM400 122v249c0 67 -69 99 -127 107c-21 3 -42 4 -62 2c-20 -1 -41 -5 -60 -11
c-44 -16 -85 -47 -85 -98v-249c0 -56 49 -88 98 -101c44 -12 94 -12 138 0c50 13 98 45 98 101z" />
    <glyph glyph-name="a" unicode="a" horiz-adv-x="460" 
d="M62 426l-14 9c87 100 340 77 340 -71v-253v0v-28c0 -35 15 -66 54 -66v-17c-38 0 -61 22 -67 58c-31 -51 -107 -64 -169 -64c-39 0 -77 8 -108 24c-93 47 -100 186 -12 239c30 18 70 26 116 26h170v81c0 132 -231 148 -310 62zM372 268h-170c-47 0 -82 -10 -108 -25
c-76 -47 -70 -169 11 -210c29 -15 65 -23 101 -23c69 0 166 18 166 101v157z" />
    <glyph glyph-name="c" unicode="c" horiz-adv-x="455" 
d="M395 103h16c-10 -53 -56 -84 -108 -98c-23 -7 -48 -10 -73 -10s-50 3 -73 10c-59 16 -109 53 -109 118v247c0 64 52 102 109 117c23 7 48 10 73 10s50 -3 73 -10c52 -14 99 -45 108 -98h-16c-10 45 -53 71 -96 83c-22 7 -46 9 -69 9s-47 -2 -69 -9
c-50 -13 -98 -46 -98 -103v-245c0 -57 47 -90 98 -104c22 -7 46 -9 69 -9s47 2 69 9c43 12 86 38 96 83z" />
    <glyph glyph-name="d" unicode="d" horiz-adv-x="465" 
d="M399 702h16v-580v-122h-16v70c-21 -35 -56 -55 -93 -65c-48 -13 -100 -13 -148 0c-57 16 -109 52 -109 117v249c0 77 74 114 141 124c21 3 44 3 66 2c54 -4 117 -26 143 -77v282zM65 122c0 -56 48 -88 98 -101c44 -12 94 -12 138 0c49 13 98 45 98 101v249
c0 51 -41 82 -85 98c-19 6 -40 10 -60 11c-20 2 -41 1 -62 -2c-58 -8 -127 -40 -127 -107v-249z" />
    <glyph glyph-name="e" unicode="e" horiz-adv-x="449" 
d="M376 64l14 -8c-48 -56 -132 -69 -201 -58c-44 7 -93 27 -120 64c-13 19 -19 41 -19 65v244c0 64 52 100 109 116c23 6 48 9 73 9c39 0 77 -8 108 -24c93 -47 100 -180 12 -233c-30 -18 -69 -26 -116 -26h-170v-87c0 -20 5 -38 17 -55c23 -32 63 -49 101 -56
c63 -12 146 0 192 49zM66 230h170c47 0 83 8 108 24c76 46 70 162 -10 204c-30 15 -66 22 -102 22c-23 0 -47 -3 -69 -9c-50 -13 -97 -46 -97 -103v-138z" />
    <glyph glyph-name="f" unicode="f" horiz-adv-x="274" 
d="M114 0v477h-100v16h100v81c0 92 69 128 148 130v-16c-70 -2 -132 -31 -132 -113v-53v-29v0h126v-16h-126v0v-477h-16z" />
    <glyph glyph-name="g" unicode="g" horiz-adv-x="466" 
d="M423 484l-39 -40c19 -19 31 -44 31 -74v-152c0 -94 -109 -127 -186 -126c-31 0 -66 6 -96 19l-6 -2c-24 -6 -40 -28 -40 -51c1 -30 25 -45 52 -50c35 -5 83 0 119 -1c57 0 151 -5 151 -83v-52c0 -48 -37 -73 -80 -84c-47 -13 -141 -14 -187 0c-60 19 -92 73 -74 134l3 7
l14 -4l-2 -7c-17 -54 11 -99 64 -116c43 -13 134 -12 179 0c35 10 69 29 69 70v52c0 67 -88 69 -136 69c-46 0 -94 -4 -122 1c-34 5 -63 27 -64 63c0 27 16 52 40 63c-36 20 -63 51 -63 98v152c0 65 52 101 109 117c47 13 100 13 147 0c24 -7 47 -18 66 -33l40 41zM398 218
v152c0 56 -48 88 -97 101c-44 12 -94 12 -138 0c-48 -13 -97 -45 -97 -101v-152c0 -148 332 -149 332 0z" />
    <glyph glyph-name="h" unicode="h" horiz-adv-x="464" 
d="M51 0v702h16v-280c67 118 349 96 349 -55v-367h-17v366c0 151 -332 159 -332 -2v-364h-16z" />
    <glyph glyph-name="j" unicode="j" horiz-adv-x="152" 
d="M98 492v-575c0 -90 -68 -137 -152 -135v14c75 0 136 37 136 120v576h16zM81 701h17v-94h-17v94z" />
    <glyph glyph-name="k" unicode="k" horiz-adv-x="455" 
d="M50 0v702h16v-482c108 88 216 185 324 273h22v-2l-257 -216c107 34 259 -9 259 -120v-155h-16v155c0 123 -212 143 -288 81l-44 -35v-201h-16z" />
    <glyph glyph-name="l" unicode="l" horiz-adv-x="199" 
d="M181 13v-15c-83 -4 -122 28 -122 117v585h15v-585c0 -83 34 -104 107 -102z" />
    <glyph glyph-name="m" unicode="m" horiz-adv-x="794" 
d="M404 0h-16v365c0 154 -311 149 -318 6v-371h-16v493h16v-71c63 102 281 98 326 -15c53 130 342 117 342 -42v-365h-16v365c0 153 -318 153 -318 0v-365z" />
    <glyph glyph-name="n" unicode="n" horiz-adv-x="468" 
d="M418 0h-16v365c0 154 -325 150 -332 6v-371h-16v493h16v-71c71 114 348 97 348 -57v-365z" />
    <glyph glyph-name="o" unicode="o" horiz-adv-x="458" 
d="M411 369v-248c0 -94 -108 -127 -185 -126c-76 1 -179 35 -179 126v248c0 168 364 168 364 0zM395 121v248c0 147 -332 146 -332 0v-248c0 -148 332 -149 332 0z" />
    <glyph glyph-name="p" unicode="p" horiz-adv-x="470" 
d="M71 -211h-17v580v122h17v-69c20 35 55 54 93 64c47 13 100 13 147 0c58 -15 110 -52 110 -117v-248c0 -78 -74 -114 -141 -124c-22 -3 -44 -4 -66 -2c-55 4 -117 25 -143 76v-282zM404 369c0 56 -47 88 -97 102c-44 12 -95 11 -139 0c-49 -14 -97 -46 -97 -102v-248
c0 -51 40 -83 85 -98c19 -7 39 -10 59 -12c21 -2 42 -1 63 2c57 9 126 40 126 108v248z" />
    <glyph glyph-name="q" unicode="q" horiz-adv-x="466" 
d="M418 -211h-17v282c-26 -51 -88 -72 -143 -76c-22 -2 -44 -1 -66 2c-67 10 -141 46 -141 124v248c0 65 52 102 110 117c47 13 100 13 147 0c38 -10 73 -29 93 -64v69h17v-122v-580zM68 369v-248c0 -68 69 -99 126 -108c21 -3 42 -4 63 -2c20 2 40 5 59 12
c45 15 85 47 85 98v248c0 56 -48 88 -97 102c-44 11 -95 12 -139 0c-50 -14 -97 -46 -97 -102z" />
    <glyph glyph-name="r" unicode="r" horiz-adv-x="297" 
d="M53 0v492h17v-73c42 75 140 94 218 68l-7 -14c-87 30 -211 -14 -211 -119v-354h-17z" />
    <glyph glyph-name="s" unicode="s" horiz-adv-x="439" 
d="M40 79l13 8c21 -31 53 -54 101 -67c53 -13 108 -12 143 -2c48 14 97 47 96 105c0 94 -98 104 -167 113c-85 11 -181 18 -181 130c0 67 51 105 108 122c47 14 100 14 147 0c32 -9 65 -25 87 -53l-14 -9c-19 24 -48 39 -77 47c-44 13 -94 12 -138 0
c-50 -15 -97 -49 -97 -108c0 -34 12 -64 40 -83c35 -22 86 -25 127 -30c54 -7 110 -15 145 -46c21 -18 37 -42 37 -84c0 -66 -52 -103 -109 -119c-38 -11 -96 -14 -151 1c-52 13 -88 40 -110 75z" />
    <glyph glyph-name="t" unicode="t" horiz-adv-x="278" 
d="M109 490v212h17v-212v0h125v-16h-125v0v-347c0 -82 62 -111 131 -113v-16c-79 2 -148 38 -148 129v347h-100v16h100z" />
    <glyph glyph-name="u" unicode="u" horiz-adv-x="473" 
d="M53 491h16v-365c0 -154 325 -149 332 -6v371h16v-492h-16v70c-71 -113 -348 -97 -348 58v364z" />
    <glyph glyph-name="v" unicode="v" horiz-adv-x="459" 
d="M231 16l142 156c20 22 22 39 22 69v250h17v-250c0 -35 -3 -53 -26 -79l-152 -166h-7l-151 166c-24 26 -27 44 -27 79v250h17v-250c0 -30 2 -47 23 -69z" />
    <glyph glyph-name="w" unicode="w" horiz-adv-x="768" 
d="M220 16l134 156c20 23 23 39 23 69v250h16v-250c0 -30 2 -46 22 -69l134 -156l134 156c20 23 22 39 22 69v250h16v-250c0 -35 -3 -53 -26 -79l-142 -166h-7l-143 166c-9 9 -15 18 -18 30c-3 -10 -10 -21 -18 -30l-143 -166h-7l-143 166c-23 26 -26 44 -26 79v250h16v-250
c0 -30 3 -46 23 -69z" />
    <glyph glyph-name="x" unicode="x" horiz-adv-x="449" 
d="M215 246l-143 138c-25 25 -26 45 -26 80v28h16v-28c0 -30 1 -49 23 -70l142 -137l142 137c22 21 23 40 23 70v28h16v-28c0 -35 -1 -55 -26 -80l-143 -138l143 -138c25 -25 26 -45 26 -80v-28h-16v28c0 30 -1 48 -23 70l-142 137l-142 -137c-22 -22 -23 -40 -23 -70v-28
h-16v28c0 35 1 55 26 80z" />
    <glyph glyph-name="y" unicode="y" horiz-adv-x="465" 
d="M418 490v-581c0 -65 -51 -104 -109 -120c-24 -6 -49 -9 -73 -9c-54 0 -124 16 -160 61l14 7c36 -39 94 -53 146 -53c23 0 47 3 69 9c50 14 95 48 96 104v160c-28 -50 -88 -69 -142 -73c-82 -6 -206 23 -206 125v370h16v-370c0 -92 117 -114 189 -109c61 5 143 35 143 109
v370h17z" />
    <glyph glyph-name="z" unicode="z" horiz-adv-x="421" 
d="M41 492h281c84 0 101 -59 42 -113l-288 -285c-49 -47 -41 -79 28 -79h296v-15h-296c-82 0 -98 48 -40 106l289 285c52 49 32 85 -33 85h-279v16z" />
    <glyph glyph-name="space" unicode=" " horiz-adv-x="238" 
 />
    <glyph glyph-name="at" unicode="@" horiz-adv-x="500" 
 />
    <glyph glyph-name="A" unicode="A" horiz-adv-x="515" 
d="M65 0h-15v582v0c0 42 22 72 57 93c70 42 224 42 294 0c35 -21 57 -51 57 -93v-582h-16v288h-18h-341h-18v-18v-270zM65 582v-279h18h341h18v279v0c1 35 -20 62 -49 80c-66 40 -213 40 -279 0c-29 -18 -49 -45 -49 -80z" />
    <glyph glyph-name="B" unicode="B" horiz-adv-x="528" 
d="M461 579v-117v0c0 -35 -17 -62 -45 -81c-15 -11 -37 -21 -55 -26c22 -5 44 -13 63 -25c37 -22 61 -54 61 -99v-6v0v-94c0 -45 -24 -77 -61 -100c-38 -22 -86 -31 -129 -31h-4v-1h-242v694v7h245v0c38 0 81 -8 114 -28c32 -19 53 -48 53 -87v-6zM292 347h-228v-332h231
c40 0 86 8 121 29c32 19 54 49 54 87v6v0v94c0 38 -22 67 -54 86c-35 22 -80 30 -121 30h-3zM288 685h-224v-322h229c63 0 153 24 153 102v120v0c0 33 -19 58 -46 74c-31 19 -70 26 -106 26h-5h-1z" />
    <glyph glyph-name="C" unicode="C" horiz-adv-x="502" 
d="M65 578v-459c1 -62 61 -93 115 -103c53 -10 127 -10 179 7c46 16 81 46 81 96h16c0 -56 -38 -92 -93 -110c-52 -17 -132 -18 -186 -8c-62 12 -126 48 -127 118v9v0v442v0v8c1 71 65 107 127 119c54 10 134 9 186 -8c55 -19 93 -55 93 -111h-16c0 51 -35 81 -81 96
c-52 17 -126 18 -179 8c-54 -10 -114 -42 -115 -104z" />
    <glyph glyph-name="D" unicode="D" horiz-adv-x="511" 
d="M279 0h-229v701h236c73 -1 172 -36 172 -123v-454c0 -91 -104 -124 -179 -124zM437 96c5 15 5 72 5 89v393c0 76 -94 107 -157 107h-219v-668h213c56 0 138 19 158 79z" />
    <glyph glyph-name="E" unicode="E" horiz-adv-x="469" 
d="M423 343h-357v-19c0 -45 -6 -196 5 -228c21 -60 102 -80 158 -80h194v-16h-194c-75 0 -179 33 -179 124v577h373v-16h-357v-326h357v-16z" />
    <glyph glyph-name="F" unicode="F" horiz-adv-x="454" 
d="M414 685h-349v-329h308v-16h-309v-340h-15v701h365v-16z" />
    <glyph glyph-name="G" unicode="G" 
d="M457 334v-216c1 -61 -49 -96 -103 -112c-55 -15 -140 -15 -195 -1c-57 15 -109 50 -109 114v4v0c0 155 -1 306 0 460c0 71 64 107 126 119c55 10 135 9 187 -8c55 -18 93 -54 93 -110h-16c0 50 -35 80 -81 96c-52 17 -127 17 -180 7s-114 -41 -114 -103v-465
c0 -55 49 -87 97 -99c53 -14 135 -14 188 1c47 13 93 44 92 98v200h-171v15h186z" />
    <glyph glyph-name="H" unicode="H" horiz-adv-x="497" 
d="M429 0v341h-364v-18v-323h-15v701h15v-344h364v344h15v-701h-15z" />
    <glyph glyph-name="I" unicode="I" horiz-adv-x="143" 
d="M63 701h15v-701h-15v701z" />
    <glyph glyph-name="J" unicode="J" horiz-adv-x="400" 
d="M331 700h16v-576c0 -172 -313 -160 -313 -1h16c0 -139 281 -142 281 1v576z" />
    <glyph glyph-name="K" unicode="K" horiz-adv-x="524" 
d="M129 357h169c80 0 178 -24 178 -125v-232h-16v232c0 86 -86 111 -159 111h-233v-343h-16v701h16v-344h38l364 344h18v-3z" />
    <glyph glyph-name="L" unicode="L" horiz-adv-x="400" 
d="M65 701l1 -575c0 -82 74 -111 142 -111h161v-15h-161c-75 0 -158 33 -158 124v577h15z" />
    <glyph glyph-name="M" unicode="M" horiz-adv-x="637" 
d="M314 189l237 512h27v-701h-17v687l-239 -519h-16l-239 519l1 -687h-17v701h27z" />
    <glyph glyph-name="N" unicode="N" horiz-adv-x="513" 
d="M458 701v-701h-27l-366 691v-691h-15v701h26l366 -690v690h16z" />
    <glyph glyph-name="O" unicode="O" 
d="M51 115v469c0 167 406 167 406 0v-469c0 -166 -406 -166 -406 0zM440 116v468c0 76 -94 110 -188 110c-92 -1 -185 -35 -185 -110v-468c0 -76 93 -109 185 -110c94 0 188 33 188 110z" />
    <glyph glyph-name="P" unicode="P" horiz-adv-x="440" 
d="M51 701h179c73 0 177 -34 177 -123v-171c0 -91 -103 -123 -178 -123h-163v-284h-15v701zM66 299h163c66 0 163 26 163 108v171c0 81 -97 108 -162 108h-164v-387z" />
    <glyph glyph-name="Q" unicode="Q" horiz-adv-x="508" 
d="M457 1l-37 37c-14 -9 -29 -18 -45 -24c-108 -40 -324 -23 -324 105v465c0 83 105 126 208 124c100 -1 199 -44 199 -124v-465c0 -27 -9 -49 -26 -70l47 -48h-22zM381 100l39 -39c16 21 21 36 21 62l1 461c0 149 -375 146 -375 0l1 -461c0 -10 1 -23 4 -32
c31 -90 212 -95 298 -63c14 5 27 13 39 22l-50 50h22z" />
    <glyph glyph-name="R" unicode="R" horiz-adv-x="449" 
d="M50 700h176c74 0 179 -33 179 -123v-158c0 -70 -55 -105 -116 -118c58 -11 116 -45 116 -114v-187h-15v187c0 82 -98 107 -164 107h-161v-294h-15v700zM65 309h161c68 0 165 25 164 110v158c0 82 -97 108 -162 108h-163v-376z" />
    <glyph glyph-name="S" unicode="S" horiz-adv-x="438" 
d="M19 128h16c0 -50 31 -91 81 -107c69 -24 167 -19 224 29c60 50 75 159 27 224c-29 40 -82 59 -142 74c-74 18 -162 35 -189 118c-19 61 -9 144 38 188c59 54 147 63 220 38c51 -17 93 -53 93 -111h-16c0 51 -37 82 -82 97c-68 23 -151 16 -204 -35
c-41 -39 -52 -115 -34 -169c25 -78 106 -93 175 -111c66 -17 123 -35 155 -79c52 -71 34 -191 -31 -246c-62 -51 -164 -57 -239 -32c-57 19 -92 65 -92 122z" />
    <glyph glyph-name="T" unicode="T" horiz-adv-x="466" 
d="M20 700h422v-16h-203v-684h-16v684h-203v16z" />
    <glyph glyph-name="U" unicode="U" horiz-adv-x="517" 
d="M252 -2c-56 1 -111 11 -145 32c-36 22 -57 55 -57 97v573h15v-573c0 -37 19 -65 50 -84c32 -20 85 -30 139 -30c56 -1 112 9 146 30c31 19 50 47 50 84v573h15v-573c0 -42 -21 -75 -57 -97c-37 -22 -97 -33 -156 -32z" />
    <glyph glyph-name="V" unicode="V" 
d="M66 700v-444c0 -37 2 -46 28 -73l161 -165l160 165c26 27 28 36 28 73v444h16v-446c0 -38 -5 -55 -31 -82l-170 -173h-7l-169 173c-27 27 -32 44 -32 82v446h16z" />
    <glyph glyph-name="W" unicode="W" horiz-adv-x="854" 
d="M66 700v-444c0 -37 3 -45 28 -73l149 -165l148 165c25 28 28 36 28 73v444h16v-444c0 -37 4 -45 29 -73l148 -165l149 165c25 28 28 36 28 73v444h16v-446c0 -38 -6 -54 -31 -82l-158 -173h-7l-158 173c-10 12 -18 21 -23 37h-2c-4 -15 -12 -25 -22 -37l-158 -173h-7
l-158 173c-25 28 -31 44 -31 82v446h16z" />
    <glyph glyph-name="X" unicode="X" horiz-adv-x="502" 
d="M47 700h16v-103c0 -36 2 -46 28 -72l161 -165l160 165c26 26 28 36 28 72v103h16v-105c0 -37 -5 -54 -31 -81l-161 -164l161 -164c26 -27 31 -44 31 -82v-105h-16v104c0 36 -2 46 -28 72l-160 165l-161 -165c-26 -26 -28 -36 -28 -72v-104h-16v105c0 38 5 55 31 82
l161 164l-161 164c-26 27 -31 44 -31 81v105z" />
    <glyph glyph-name="Y" unicode="Y" horiz-adv-x="481" 
d="M39 700h16v-153c0 -36 3 -45 28 -72l160 -177l161 177c25 27 28 36 28 72v153h16v-154c0 -38 -6 -54 -31 -82l-166 -181v-283h-16v283l-165 181c-25 28 -31 44 -31 82v154z" />
    <glyph glyph-name="Z" unicode="Z" horiz-adv-x="464" 
d="M44 701h312c51 0 72 -28 72 -80v-37c-3 -187 -377 -264 -382 -465v-38c0 -46 12 -65 57 -65h328v-16h-328c-55 0 -72 24 -72 81v38c0 207 382 294 382 464v38c0 43 -15 65 -59 65h-310v15z" />
    <glyph glyph-name="exclam" unicode="!" horiz-adv-x="145" 
d="M82 46v-46h-19v46h19zM81 701v-577h-15v577h15z" />
    <glyph glyph-name="quotedbl" unicode="&#x22;" horiz-adv-x="162" 
d="M53 702v-166h-15v166h15zM118 702v-166h-15v166h15z" />
    <glyph glyph-name="quotesingle" unicode="'" horiz-adv-x="141" 
d="M80 702v-166h-15v166h15z" />
    <glyph glyph-name="hyphen" unicode="-" horiz-adv-x="317" 
d="M43 284h215v-17h-215v17z" />
    <glyph glyph-name="plus" unicode="+" horiz-adv-x="399" 
d="M199 444v-149h151v-16h-151v-152h-16v152h-150v16h150v149h16z" />
    <glyph glyph-name="one" unicode="1" horiz-adv-x="232" 
d="M151 0v684h-119v17h136v-701h-17z" />
    <glyph glyph-name="two" unicode="2" horiz-adv-x="474" 
d="M61 569h-15c0 57 35 102 91 121c40 13 89 18 136 13c42 -6 82 -20 112 -44c57 -48 71 -152 38 -223c-34 -74 -156 -103 -225 -139c-79 -42 -141 -86 -143 -179v-38c0 -48 15 -65 60 -65h321v-15h-321c-58 0 -76 23 -76 80v39c0 102 73 154 154 193c88 42 186 70 215 131
c31 65 20 160 -33 205c-57 47 -164 51 -233 28c-49 -17 -81 -57 -81 -107z" />
    <glyph glyph-name="zero" unicode="0" horiz-adv-x="506" 
d="M49 117v466c0 166 406 166 406 0v-466c0 -166 -406 -166 -406 0zM116 662l285 -615c23 17 37 40 37 70v466c0 76 -94 110 -188 110c-49 -1 -98 -10 -134 -31zM387 38l-284 615c-23 -17 -37 -40 -38 -70v-466c1 -75 93 -109 185 -109c51 -1 101 9 137 30z" />
    <glyph glyph-name="three" unicode="3" horiz-adv-x="474" 
d="M37 701h218c73 -1 172 -36 172 -124v-111c0 -69 -56 -105 -115 -116c59 -11 115 -48 115 -115v-112c0 -87 -99 -122 -172 -123h-218v16h213h4c63 0 157 31 157 107v112c0 82 -99 107 -165 107h-209v16h209c66 0 165 26 165 108v111c0 77 -94 108 -157 108h-217v16z" />
    <glyph glyph-name="four" unicode="4" horiz-adv-x="492" 
d="M428 701h15v-701h-15v191h-319c-80 1 -94 77 -62 141l183 369h18l-186 -373c-26 -52 -22 -122 49 -122h317v495z" />
    <glyph glyph-name="five" unicode="5" horiz-adv-x="513" 
d="M54 106h15c9 -43 50 -69 92 -81c54 -15 136 -15 190 -1c49 13 98 45 99 100v171c0 63 -62 95 -116 105c-25 5 -52 7 -78 7h-130c-58 0 -76 27 -76 78v215h410v-17h-392v-198c0 -44 10 -63 56 -63h129c28 0 56 -2 84 -7c63 -12 128 -48 128 -120v-9v0v-157v0v-5
c0 -64 -53 -100 -110 -115c-54 -14 -144 -14 -198 2c-50 14 -95 44 -103 95z" />
    <glyph glyph-name="six" unicode="6" horiz-adv-x="501" 
d="M456 598h-15c-8 40 -44 65 -82 78c-52 17 -126 17 -179 7c-54 -10 -114 -41 -115 -103v-204h216c78 0 176 -29 176 -125v-129c0 -64 -45 -99 -103 -115c-53 -16 -142 -16 -195 -2c-56 15 -108 50 -109 114v6v0v455c1 70 64 106 127 118c54 10 134 10 187 -8
c46 -15 84 -45 92 -92zM65 360v-241c1 -55 50 -86 98 -99c53 -14 134 -14 187 1c49 14 93 45 93 100l-1 129c0 87 -91 110 -161 110h-216z" />
    <glyph glyph-name="seven" unicode="7" horiz-adv-x="454" 
d="M21 701h329c82 -1 106 -77 66 -137l-339 -564h-18l343 570c36 54 16 115 -53 115h-328v16z" />
    <glyph glyph-name="eight" unicode="8" horiz-adv-x="534" 
d="M470 583v-111c0 -63 -64 -104 -119 -115c53 -11 136 -49 136 -115v-123c0 -96 -148 -124 -221 -124c-72 0 -220 28 -220 124v123c0 66 82 104 135 115c-55 11 -119 52 -119 115v111c0 83 102 124 204 124s204 -41 204 -124zM266 692c-94 0 -188 -36 -188 -109v-111
c0 -72 94 -108 188 -108s188 36 188 108v111c0 73 -94 109 -188 109zM266 350c-94 0 -204 -36 -204 -108v-123c0 -73 110 -108 204 -108s205 35 205 108v123c0 72 -111 108 -205 108z" />
    <glyph glyph-name="nine" unicode="9" horiz-adv-x="501" 
d="M46 104l15 -1c9 -39 44 -64 82 -77c52 -17 126 -18 180 -8c53 11 114 42 114 104v199h-215c-79 0 -177 28 -177 125v131c0 64 46 99 103 116c53 15 142 15 195 1c56 -15 108 -50 109 -114v-6v0v-452c0 -71 -64 -107 -127 -118c-54 -11 -134 -10 -187 8
c-45 15 -84 44 -92 92zM437 336v244c-1 56 -50 87 -98 99c-53 14 -134 14 -187 -1c-48 -13 -93 -45 -92 -100v-131c1 -87 91 -111 161 -111h216z" />
    <glyph glyph-name="question" unicode="?" horiz-adv-x="467" 
d="M50 569h-16c0 56 36 102 92 121c39 13 89 18 135 12c43 -5 83 -19 112 -43c58 -49 72 -152 39 -224c-32 -68 -84 -86 -123 -126c-33 -35 -57 -62 -57 -168v-33h-16v34c0 210 131 191 181 300c31 65 20 161 -33 205c-58 47 -164 52 -233 28c-50 -16 -81 -57 -81 -106z
M234 46v-46h-17v46h17z" />
    <glyph glyph-name="parenleft" unicode="(" horiz-adv-x="184" 
d="M156 -119h-15c-93 187 -93 680 0 868h15c-93 -188 -93 -681 0 -868z" />
    <glyph glyph-name="parenright" unicode=")" horiz-adv-x="196" 
d="M55 -119h-15c93 187 93 680 0 868h15c93 -188 93 -681 0 -868z" />
    <glyph glyph-name="equal" unicode="=" horiz-adv-x="491" 
d="M62 255h349v-17h-349v17zM62 400h349v-17h-349v17z" />
    <glyph glyph-name="comma" unicode="," horiz-adv-x="131" 
d="M43 1v34h26v-34v0v0c0 -18 -2 -34 -25 -34v11c10 0 10 16 9 23h-10z" />
    <glyph glyph-name="period" unicode="." horiz-adv-x="118" 
d="M44 0v34h24v-34h-24z" />
    <glyph glyph-name="colon" unicode=":" horiz-adv-x="148" 
d="M65 0v34h24v-34h-24zM65 363v34h24v-34h-24z" />
    <glyph glyph-name="semicolon" unicode=";" horiz-adv-x="155" 
d="M65 363v34h24v-34h-24zM64 1v34h26v-34v0v0c0 -18 -2 -34 -25 -34v11c10 0 10 16 9 23h-10z" />
    <glyph glyph-name="grave" unicode="`" horiz-adv-x="135" 
d="M30 770h25l35 -70h-16z" />
    <glyph glyph-name="circumflex" unicode="&#x2c6;" horiz-adv-x="259" 
d="M111 768h22l62 -68h-16l-57 57l-57 -57h-17z" />
    <glyph glyph-name="acute" unicode="&#xb4;" horiz-adv-x="164" 
d="M88 770h24l-44 -70h-16z" />
    <glyph glyph-name="cedilla" unicode="&#xb8;" horiz-adv-x="273" 
d="M140 -14l-17 -34c26 -1 71 -10 69 -43c-2 -49 -81 -46 -111 -23l-1 1l8 11l1 -1c9 -8 30 -14 49 -14c20 1 39 10 39 26c0 31 -54 33 -75 31h-2l23 46h17z" />
    <glyph glyph-name="tilde" unicode="&#x2dc;" horiz-adv-x="292" 
d="M84 660l-10 5c13 35 49 41 76 18c9 -7 17 -16 30 -16c14 0 26 7 33 22l10 -7c-7 -19 -23 -29 -42 -30c-13 0 -23 4 -33 13c-9 8 -18 17 -31 17c-14 0 -26 -8 -33 -22z" />
    <glyph glyph-name="dieresis" unicode="&#xa8;" horiz-adv-x="356" 
d="M85 665v34h24v-34h-24zM227 665v34h24v-34h-24z" />
    <glyph glyph-name="ring" unicode="&#x2da;" horiz-adv-x="178" 
d="M29 663c0 28 21 50 49 50s50 -22 50 -50s-22 -49 -50 -49s-49 21 -49 49zM43 661c0 -20 14 -34 36 -34c20 0 36 14 36 34c0 22 -16 38 -36 38c-22 0 -36 -16 -36 -38z" />
    <glyph glyph-name="caron" unicode="&#x2c7;" horiz-adv-x="235" 
d="M119 679h-22l-62 68h16l57 -57l57 57h17z" />
    <glyph glyph-name="florin" unicode="&#x192;" horiz-adv-x="376" 
d="M207 477h-100l2 16h100l11 81c13 92 87 128 166 130l-2 -16c-70 -2 -136 -31 -148 -113l-11 -82h126l-2 -16h-126l-67 -477c-14 -90 -88 -126 -165 -128l2 16c69 2 135 31 147 113z" />
    <glyph glyph-name="quotesinglbase" unicode="&#x201a;" horiz-adv-x="150" 
d="M64 1v34h26v-34v0v0c0 -18 -2 -34 -25 -34v11c10 0 10 16 9 23h-10z" />
    <glyph glyph-name="quotedblbase" unicode="&#x201e;" horiz-adv-x="239" 
d="M64 1v34h26v-34v0v0c0 -18 -2 -34 -25 -34v11c10 0 10 16 9 23h-10zM140 1v34h26v-34v0v0c0 -18 -2 -34 -25 -34v11c10 0 10 16 9 23h-10z" />
    <glyph glyph-name="ellipsis" unicode="&#x2026;" horiz-adv-x="369" 
d="M56 0v34h24v-34h-24zM161 0v34h24v-34h-24zM261 0v34h24v-34h-24z" />
    <glyph glyph-name="Scaron" unicode="&#x160;" horiz-adv-x="468" 
d="M16 128h16c0 -50 31 -91 81 -107c69 -24 167 -19 224 29c60 50 75 159 27 224c-29 40 -82 59 -142 74c-74 18 -162 35 -189 118c-19 61 -9 144 38 188c59 54 147 63 220 38c51 -17 93 -53 93 -111h-16c0 51 -37 82 -82 97c-68 23 -151 16 -204 -35
c-41 -39 -52 -115 -34 -169c25 -78 106 -93 175 -111c66 -17 123 -35 155 -79c52 -71 34 -191 -31 -246c-62 -51 -164 -57 -239 -32c-57 19 -92 65 -92 122zM245 760h-24l-69 57h18l63 -48l62 48h19z" />
    <glyph glyph-name="scaron" unicode="&#x161;" horiz-adv-x="445" 
d="M40 79l13 8c21 -31 53 -54 101 -67c53 -13 108 -12 143 -2c48 14 97 47 96 105c0 94 -98 104 -167 113c-85 11 -181 18 -181 130c0 67 51 105 108 122c47 14 100 14 147 0c32 -9 65 -25 87 -53l-14 -9c-19 24 -48 39 -77 47c-44 13 -94 12 -138 0
c-50 -15 -97 -49 -97 -108c0 -34 12 -64 40 -83c35 -22 86 -25 127 -30c54 -7 110 -15 145 -46c21 -18 37 -42 37 -84c0 -66 -52 -103 -109 -119c-38 -11 -96 -14 -151 1c-52 13 -88 40 -110 75zM246 570h-24l-67 65h17l62 -54l62 54h18z" />
    <glyph glyph-name="Zcaron" unicode="&#x17d;" horiz-adv-x="464" 
d="M44 701h312c51 0 72 -28 72 -80v-37c-3 -187 -377 -264 -382 -465v-38c0 -46 12 -65 57 -65h328v-16h-328c-55 0 -72 24 -72 81v38c0 207 382 294 382 464v38c0 43 -15 65 -59 65h-310v15zM253 761h-24l-68 56h17l63 -47l63 47h19z" />
    <glyph glyph-name="zcaron" unicode="&#x17e;" horiz-adv-x="431" 
d="M41 492h281c84 0 101 -59 42 -113l-288 -285c-49 -47 -41 -79 28 -79h296v-15h-296c-82 0 -98 48 -40 106l289 285c52 49 32 85 -33 85h-279v16zM243 562h-23l-63 57h16l58 -48l59 48h17z" />
    <glyph glyph-name="exclamdown" unicode="&#xa1;" horiz-adv-x="139" 
d="M59 459v46h19v-46h-19zM60 -199v580h16v-580h-16z" />
    <glyph glyph-name="questiondown" unicode="&#xbf;" horiz-adv-x="457" 
d="M432 -59h-16c0 -49 -31 -90 -81 -106c-69 -24 -175 -19 -233 28c-53 44 -64 140 -33 205c50 109 181 90 181 300v34h-16v-33c0 -106 -24 -133 -57 -168c-39 -40 -91 -58 -123 -126c-33 -72 -19 -175 39 -224c29 -24 69 -38 112 -43c46 -6 96 -1 135 12
c56 19 92 65 92 121zM232 464v46h17v-46h-17z" />
    <glyph glyph-name="Agrave" unicode="&#xc0;" horiz-adv-x="534" 
d="M65 0h-15v582v0c0 42 22 72 57 93c70 42 224 42 294 0c35 -21 57 -51 57 -93v-582h-16v288h-18h-341h-18v-18v-270zM65 582v-279h18h341h18v279v0c1 35 -20 62 -49 80c-66 40 -213 40 -279 0c-29 -18 -49 -45 -49 -80zM201 813h25l35 -62h-16z" />
    <glyph glyph-name="Aacute" unicode="&#xc1;" horiz-adv-x="534" 
d="M65 0h-15v582v0c0 42 22 72 57 93c70 42 224 42 294 0c35 -21 57 -51 57 -93v-582h-16v288h-18h-341h-18v-18v-270zM65 582v-279h18h341h18v279v0c1 35 -20 62 -49 80c-66 40 -213 40 -279 0c-29 -18 -49 -45 -49 -80zM289 804h25l-47 -58h-17z" />
    <glyph glyph-name="Atilde" unicode="&#xc3;" horiz-adv-x="534" 
d="M65 0h-15v582v0c0 42 22 72 57 93c70 42 224 42 294 0c35 -21 57 -51 57 -93v-582h-16v288h-18h-341h-18v-18v-270zM65 582v-279h18h341h18v279v0c1 35 -20 62 -49 80c-66 40 -213 40 -279 0c-29 -18 -49 -45 -49 -80zM199 756l-10 5c13 35 49 41 76 18
c9 -7 17 -16 30 -16c14 0 26 7 33 22l10 -7c-7 -19 -23 -29 -42 -30c-13 0 -23 4 -33 13c-9 8 -18 17 -31 17c-14 0 -26 -8 -33 -22z" />
    <glyph glyph-name="Adieresis" unicode="&#xc4;" horiz-adv-x="534" 
d="M65 0h-15v582v0c0 42 22 72 57 93c70 42 224 42 294 0c35 -21 57 -51 57 -93v-582h-16v288h-18h-341h-18v-18v-270zM65 582v-279h18h341h18v279v0c1 35 -20 62 -49 80c-66 40 -213 40 -279 0c-29 -18 -49 -45 -49 -80zM172 748v29h25v-29h-25zM317 748v29h25v-29h-25z
" />
    <glyph glyph-name="Aring" unicode="&#xc5;" horiz-adv-x="534" 
d="M65 0h-15v582v0c0 42 22 72 57 93c70 42 224 42 294 0c35 -21 57 -51 57 -93v-582h-16v288h-18h-341h-18v-18v-270zM65 582v-279h18h341h18v279v0c1 35 -20 62 -49 80c-66 40 -213 40 -279 0c-29 -18 -49 -45 -49 -80zM201 775c0 28 24 51 55 51s55 -23 55 -51
c0 -29 -24 -51 -55 -51s-55 22 -55 51zM217 773c0 -21 15 -35 40 -35c22 0 40 14 40 35c0 22 -18 39 -40 39c-25 0 -40 -17 -40 -39z" />
    <glyph glyph-name="Egrave" unicode="&#xc8;" horiz-adv-x="472" 
d="M423 343h-357v-19c0 -45 -6 -196 5 -228c21 -60 102 -80 158 -80h194v-16h-194c-75 0 -179 33 -179 124v577h373v-16h-357v-326h357v-16zM196 806h25l36 -56h-16z" />
    <glyph glyph-name="Ecircumflex" unicode="&#xca;" horiz-adv-x="472" 
d="M423 343h-357v-19c0 -45 -6 -196 5 -228c21 -60 102 -80 158 -80h194v-16h-194c-75 0 -179 33 -179 124v577h373v-16h-357v-326h357v-16zM244 805h22l62 -55h-16l-57 46l-58 -46h-17z" />
    <glyph glyph-name="Edieresis" unicode="&#xcb;" horiz-adv-x="472" 
d="M423 343h-357v-19c0 -45 -6 -196 5 -228c21 -60 102 -80 158 -80h194v-16h-194c-75 0 -179 33 -179 124v577h373v-16h-357v-326h357v-16zM171 768v28h24v-28h-24zM315 768v28h25v-28h-25z" />
    <glyph glyph-name="quoteright" unicode="&#x2019;" horiz-adv-x="158" 
d="M66 667v34h26v-34v0v0c0 -18 -2 -34 -25 -34v11c10 0 10 16 9 23h-10z" />
    <glyph glyph-name="quoteleft" unicode="&#x2018;" horiz-adv-x="174" 
d="M102 667v-34h-26v34v0v0c0 18 2 34 25 34v-11c-10 0 -10 -16 -9 -23h10z" />
    <glyph glyph-name="quotedblleft" unicode="&#x201c;" horiz-adv-x="193" 
d="M149 666v-34h-26v34v0v0c0 18 2 34 25 34v-11c-10 0 -10 -16 -9 -23h10zM84 666v-34h-26v34v0v0c0 18 2 34 25 34v-11c-10 0 -10 -16 -9 -23h10z" />
    <glyph glyph-name="quotedblright" unicode="&#x201d;" horiz-adv-x="203" 
d="M66 667v34h26v-34v0v0c0 -18 -2 -34 -25 -34v11c10 0 10 16 9 23h-10zM131 667v34h26v-34v0v0c0 -18 -2 -34 -25 -34v11c10 0 10 16 9 23h-10z" />
    <glyph glyph-name="i" unicode="i" horiz-adv-x="145" 
d="M67 496h16v-496h-16v496zM67 702h16v-94h-16v94z" />
    <glyph glyph-name="OE" unicode="&#x152;" horiz-adv-x="859" 
d="M813 343h-357v-19c0 -37 -4 -143 0 -199h1v-8c1 -9 2 -16 4 -21c21 -60 102 -80 158 -80h194v-16h-194c-61 0 -142 22 -169 79c-54 -129 -399 -117 -399 36v469c0 148 286 155 389 95v22h373v-16h-357v-326h357v-16zM440 661c-90 58 -373 61 -373 -77v-468
c0 -76 93 -109 185 -110c94 0 188 33 188 110v1v7v537z" />
    <glyph glyph-name="cent" unicode="&#xa2;" horiz-adv-x="455" 
d="M224 -71v66c-23 1 -46 4 -67 10c-59 16 -109 53 -109 118v247c0 64 52 102 109 117c21 6 44 9 67 10v62h15v-62c22 -1 44 -4 64 -10c52 -14 99 -45 108 -98h-16c-10 45 -53 71 -96 83c-22 7 -46 9 -69 9s-47 -2 -69 -9c-50 -13 -98 -46 -98 -103v-245
c0 -57 47 -90 98 -104c22 -7 46 -9 69 -9s47 2 69 9c43 12 86 38 96 83h16c-10 -53 -56 -84 -108 -98c-20 -6 -42 -9 -64 -10v-66h-15z" />
    <glyph glyph-name="Ydieresis" unicode="&#x178;" horiz-adv-x="481" 
d="M39 700h16v-153c0 -36 3 -45 28 -72l160 -177l161 177c25 27 28 36 28 72v153h16v-154c0 -38 -6 -54 -31 -82l-166 -181v-283h-16v283l-165 181c-25 28 -31 44 -31 82v154zM159 750v34h24v-34h-24zM301 750v34h24v-34h-24z" />
    <glyph glyph-name="oe" unicode="&#x153;" horiz-adv-x="793" 
d="M721 64l14 -8c-48 -56 -132 -69 -201 -58c-44 7 -93 27 -120 64c-4 6 -8 12 -11 19c-25 -64 -112 -87 -177 -86c-76 1 -179 35 -179 126v248c0 153 301 166 355 41c17 40 58 64 102 77c23 6 48 9 73 9c39 0 77 -8 108 -24c93 -47 100 -180 12 -233
c-30 -18 -69 -26 -116 -26h-170v-87c0 -20 5 -38 17 -55c23 -32 63 -49 101 -56c63 -12 146 0 192 49zM395 121v248c0 147 -332 146 -332 0v-248c0 -148 332 -149 332 0zM411 230h170c47 0 83 8 108 24c76 46 70 162 -10 204c-30 15 -66 22 -102 22c-23 0 -47 -3 -69 -9
c-50 -13 -97 -46 -97 -103v-138z" />
    <glyph glyph-name="Euro" unicode="&#x20ac;" horiz-adv-x="506" 
d="M65 578v-165h219v-15h-219v-85h219v-15h-219v-179c1 -62 61 -93 115 -103c53 -10 127 -10 179 7c46 16 81 46 81 96h16c0 -56 -38 -92 -93 -110c-52 -17 -132 -18 -186 -8c-62 12 -126 48 -127 118v179h-51v15h51v85h-51v15h51v165c1 71 65 107 127 119
c54 10 134 9 186 -8c55 -19 93 -55 93 -111h-16c0 51 -35 81 -81 96c-52 17 -126 18 -179 8c-54 -10 -114 -42 -115 -104z" />
    <glyph glyph-name="AE" unicode="&#xc6;" horiz-adv-x="849" 
d="M803 326h-357v-19c0 -45 -6 -179 5 -211c21 -60 102 -80 158 -80h194v-16h-194c-75 0 -179 33 -179 124v203h-365v-327h-15v571c0 42 22 78 57 99c34 20 90 30 146 31h550v-16h-357v-343h357v-16zM253 687c-53 -1 -106 -11 -139 -30c-29 -18 -49 -51 -49 -86v-229h365
v345h-177z" />
    <glyph glyph-name="Ccedilla" unicode="&#xc7;" horiz-adv-x="502" 
d="M65 578v-459c1 -62 61 -93 115 -103c53 -10 127 -10 179 7c46 16 81 46 81 96h16c0 -56 -38 -92 -93 -110c-28 -9 -64 -14 -100 -14l-14 -30c26 -1 71 -10 69 -43c-2 -52 -81 -51 -111 -28l-1 1l8 11l1 -1c9 -8 30 -14 49 -14c20 1 39 15 39 31c0 31 -54 33 -75 31h-2
l20 42c-25 0 -49 2 -69 6c-62 12 -126 48 -127 118v459c1 71 65 107 127 119c54 10 134 9 186 -8c55 -19 93 -55 93 -111h-16c0 51 -35 81 -81 96c-52 17 -126 18 -179 8c-54 -10 -114 -42 -115 -104z" />
    <glyph glyph-name="Acircumflex" unicode="&#xc2;" horiz-adv-x="515" 
d="M65 0h-15v582v0c0 42 22 72 57 93c70 42 224 42 294 0c35 -21 57 -51 57 -93v-582h-16v288h-18h-341h-18v-18v-270zM65 582v-279h18h341h18v279v0c1 35 -20 62 -49 80c-66 40 -213 40 -279 0c-29 -18 -49 -45 -49 -80zM248 811h22l62 -68h-16l-57 57l-57 -57h-17z" />
    <glyph glyph-name="Eacute" unicode="&#xc9;" horiz-adv-x="469" 
d="M423 343h-357v-19c0 -45 -6 -196 5 -228c21 -60 102 -80 158 -80h194v-16h-194c-75 0 -179 33 -179 124v577h373v-16h-357v-326h357v-16zM265 820h24l-44 -70h-16z" />
    <glyph glyph-name="Igrave" unicode="&#xcc;" horiz-adv-x="143" 
d="M63 701h15v-701h-15v701zM22 819h25l35 -70h-16z" />
    <glyph glyph-name="Iacute" unicode="&#xcd;" horiz-adv-x="143" 
d="M63 701h15v-701h-15v701zM99 819h24l-44 -70h-16z" />
    <glyph glyph-name="Icircumflex" unicode="&#xce;" horiz-adv-x="143" 
d="M63 701h15v-701h-15v701zM61 815h22l62 -68h-16l-57 57l-57 -57h-17z" />
    <glyph glyph-name="Idieresis" unicode="&#xcf;" horiz-adv-x="143" 
d="M63 701h15v-701h-15v701zM-12 741v34h24v-34h-24zM130 741v34h24v-34h-24z" />
    <glyph glyph-name="Ntilde" unicode="&#xd1;" horiz-adv-x="513" 
d="M458 701v-701h-27l-366 691v-691h-15v701h26l366 -690v690h16zM200 751l-10 5c13 35 49 41 76 18c9 -7 17 -16 30 -16c14 0 26 7 33 22l10 -7c-7 -19 -23 -29 -42 -30c-13 0 -23 4 -33 13c-9 8 -18 17 -31 17c-14 0 -26 -8 -33 -22z" />
    <glyph glyph-name="Ograve" unicode="&#xd2;" 
d="M51 115v469c0 167 406 167 406 0v-469c0 -166 -406 -166 -406 0zM440 116v468c0 76 -94 110 -188 110c-92 -1 -185 -35 -185 -110v-468c0 -76 93 -109 185 -110c94 0 188 33 188 110zM212 818h25l35 -70h-16z" />
    <glyph glyph-name="Oacute" unicode="&#xd3;" 
d="M51 115v469c0 167 406 167 406 0v-469c0 -166 -406 -166 -406 0zM440 116v468c0 76 -94 110 -188 110c-92 -1 -185 -35 -185 -110v-468c0 -76 93 -109 185 -110c94 0 188 33 188 110zM296 822h24l-44 -70h-16z" />
    <glyph glyph-name="Ocircumflex" unicode="&#xd4;" 
d="M51 115v469c0 167 406 167 406 0v-469c0 -166 -406 -166 -406 0zM440 116v468c0 76 -94 110 -188 110c-92 -1 -185 -35 -185 -110v-468c0 -76 93 -109 185 -110c94 0 188 33 188 110zM252 811h22l62 -68h-16l-57 57l-57 -57h-17z" />
    <glyph glyph-name="Otilde" unicode="&#xd5;" 
d="M51 115v469c0 167 406 167 406 0v-469c0 -166 -406 -166 -406 0zM440 116v468c0 76 -94 110 -188 110c-92 -1 -185 -35 -185 -110v-468c0 -76 93 -109 185 -110c94 0 188 33 188 110zM200 758l-10 5c13 35 49 41 76 18c9 -7 17 -16 30 -16c14 0 26 7 33 22l10 -7
c-7 -19 -23 -29 -42 -30c-13 0 -23 4 -33 13c-9 8 -18 17 -31 17c-14 0 -26 -8 -33 -22z" />
    <glyph glyph-name="Odieresis" unicode="&#xd6;" 
d="M51 115v469c0 167 406 167 406 0v-469c0 -166 -406 -166 -406 0zM440 116v468c0 76 -94 110 -188 110c-92 -1 -185 -35 -185 -110v-468c0 -76 93 -109 185 -110c94 0 188 33 188 110zM178 750v34h24v-34h-24zM320 750v34h24v-34h-24z" />
    <glyph glyph-name="Oslash" unicode="&#xd8;" 
d="M53 -47l39 83c-26 20 -41 46 -41 79v469c0 126 230 157 344 93l29 62h17l-33 -70c30 -21 49 -49 49 -85v-469c0 -128 -243 -157 -353 -88l-34 -74h-17zM440 116v468c0 30 -15 53 -39 71l-290 -614c35 -24 88 -35 141 -35c94 0 188 33 188 110zM67 116
c0 -27 12 -49 31 -66l290 613c-36 21 -86 31 -136 31c-92 -1 -185 -35 -185 -110v-468z" />
    <glyph glyph-name="Ugrave" unicode="&#xd9;" horiz-adv-x="517" 
d="M252 -2c-56 1 -111 11 -145 32c-36 22 -57 55 -57 97v573h15v-573c0 -37 19 -65 50 -84c32 -20 85 -30 139 -30c56 -1 112 9 146 30c31 19 50 47 50 84v573h15v-573c0 -42 -21 -75 -57 -97c-37 -22 -97 -33 -156 -32zM211 817h25l35 -70h-16z" />
    <glyph glyph-name="Uacute" unicode="&#xda;" horiz-adv-x="517" 
d="M252 -2c-56 1 -111 11 -145 32c-36 22 -57 55 -57 97v573h15v-573c0 -37 19 -65 50 -84c32 -20 85 -30 139 -30c56 -1 112 9 146 30c31 19 50 47 50 84v573h15v-573c0 -42 -21 -75 -57 -97c-37 -22 -97 -33 -156 -32zM280 815h24l-44 -70h-16z" />
    <glyph glyph-name="Ucircumflex" unicode="&#xdb;" horiz-adv-x="517" 
d="M252 -2c-56 1 -111 11 -145 32c-36 22 -57 55 -57 97v573h15v-573c0 -37 19 -65 50 -84c32 -20 85 -30 139 -30c56 -1 112 9 146 30c31 19 50 47 50 84v573h15v-573c0 -42 -21 -75 -57 -97c-37 -22 -97 -33 -156 -32zM254 812h22l62 -68h-16l-57 57l-57 -57h-17z" />
    <glyph glyph-name="Udieresis" unicode="&#xdc;" horiz-adv-x="517" 
d="M252 -2c-56 1 -111 11 -145 32c-36 22 -57 55 -57 97v573h15v-573c0 -37 19 -65 50 -84c32 -20 85 -30 139 -30c56 -1 112 9 146 30c31 19 50 47 50 84v573h15v-573c0 -42 -21 -75 -57 -97c-37 -22 -97 -33 -156 -32zM180 744v34h24v-34h-24zM322 744v34h24v-34h-24z" />
    <glyph glyph-name="Yacute" unicode="&#xdd;" horiz-adv-x="481" 
d="M39 700h16v-153c0 -36 3 -45 28 -72l160 -177l161 177c25 27 28 36 28 72v153h16v-154c0 -38 -6 -54 -31 -82l-166 -181v-283h-16v283l-165 181c-25 28 -31 44 -31 82v154zM264 815h24l-44 -70h-16z" />
    <glyph glyph-name="agrave" unicode="&#xe0;" horiz-adv-x="460" 
d="M62 426l-14 9c87 100 340 77 340 -71v-253v0v-28c0 -35 15 -66 54 -66v-17c-38 0 -61 22 -67 58c-31 -51 -107 -64 -169 -64c-39 0 -77 8 -108 24c-93 47 -100 186 -12 239c30 18 70 26 116 26h170v81c0 132 -231 148 -310 62zM372 268h-170c-47 0 -82 -10 -108 -25
c-76 -47 -70 -169 11 -210c29 -15 65 -23 101 -23c69 0 166 18 166 101v157zM175 661h25l35 -70h-16z" />
    <glyph glyph-name="aacute" unicode="&#xe1;" horiz-adv-x="460" 
d="M62 426l-14 9c87 100 340 77 340 -71v-253v0v-28c0 -35 15 -66 54 -66v-17c-38 0 -61 22 -67 58c-31 -51 -107 -64 -169 -64c-39 0 -77 8 -108 24c-93 47 -100 186 -12 239c30 18 70 26 116 26h170v81c0 132 -231 148 -310 62zM372 268h-170c-47 0 -82 -10 -108 -25
c-76 -47 -70 -169 11 -210c29 -15 65 -23 101 -23c69 0 166 18 166 101v157zM248 656h24l-44 -70h-16z" />
    <glyph glyph-name="acircumflex" unicode="&#xe2;" horiz-adv-x="460" 
d="M62 426l-14 9c87 100 340 77 340 -71v-253v0v-28c0 -35 15 -66 54 -66v-17c-38 0 -61 22 -67 58c-31 -51 -107 -64 -169 -64c-39 0 -77 8 -108 24c-93 47 -100 186 -12 239c30 18 70 26 116 26h170v81c0 132 -231 148 -310 62zM372 268h-170c-47 0 -82 -10 -108 -25
c-76 -47 -70 -169 11 -210c29 -15 65 -23 101 -23c69 0 166 18 166 101v157zM209 648h22l62 -68h-16l-57 57l-57 -57h-17z" />
    <glyph glyph-name="atilde" unicode="&#xe3;" horiz-adv-x="460" 
d="M62 426l-14 9c87 100 340 77 340 -71v-253v0v-28c0 -35 15 -66 54 -66v-17c-38 0 -61 22 -67 58c-31 -51 -107 -64 -169 -64c-39 0 -77 8 -108 24c-93 47 -100 186 -12 239c30 18 70 26 116 26h170v81c0 132 -231 148 -310 62zM372 268h-170c-47 0 -82 -10 -108 -25
c-76 -47 -70 -169 11 -210c29 -15 65 -23 101 -23c69 0 166 18 166 101v157zM160 588l-10 5c13 35 49 41 76 18c9 -7 17 -16 30 -16c14 0 26 7 33 22l10 -7c-7 -19 -23 -29 -42 -30c-13 0 -23 4 -33 13c-9 8 -18 17 -31 17c-14 0 -26 -8 -33 -22z" />
    <glyph glyph-name="adieresis" unicode="&#xe4;" horiz-adv-x="460" 
d="M62 426l-14 9c87 100 340 77 340 -71v-253v0v-28c0 -35 15 -66 54 -66v-17c-38 0 -61 22 -67 58c-31 -51 -107 -64 -169 -64c-39 0 -77 8 -108 24c-93 47 -100 186 -12 239c30 18 70 26 116 26h170v81c0 132 -231 148 -310 62zM372 268h-170c-47 0 -82 -10 -108 -25
c-76 -47 -70 -169 11 -210c29 -15 65 -23 101 -23c69 0 166 18 166 101v157zM137 584v34h24v-34h-24zM279 584v34h24v-34h-24z" />
    <glyph glyph-name="aring" unicode="&#xe5;" horiz-adv-x="460" 
d="M62 426l-14 9c87 100 340 77 340 -71v-253v0v-28c0 -35 15 -66 54 -66v-17c-38 0 -61 22 -67 58c-31 -51 -107 -64 -169 -64c-39 0 -77 8 -108 24c-93 47 -100 186 -12 239c30 18 70 26 116 26h170v81c0 132 -231 148 -310 62zM372 268h-170c-47 0 -82 -10 -108 -25
c-76 -47 -70 -169 11 -210c29 -15 65 -23 101 -23c69 0 166 18 166 101v157zM177 624c0 28 21 50 49 50s50 -22 50 -50s-22 -49 -50 -49s-49 21 -49 49zM191 622c0 -20 14 -34 36 -34c20 0 36 14 36 34c0 22 -16 38 -36 38c-22 0 -36 -16 -36 -38z" />
    <glyph glyph-name="ae" unicode="&#xe6;" horiz-adv-x="774" 
d="M698 64l14 -8c-48 -56 -132 -69 -201 -58c-44 7 -93 27 -120 64c0 0 -1 0 -1 1c-43 -53 -128 -69 -184 -69c-39 0 -77 8 -108 24c-93 47 -100 175 -12 228c30 18 70 26 116 26h170v92c0 132 -231 148 -310 62l-14 9c77 88 285 80 331 -26c16 41 57 65 102 78
c23 6 48 9 73 9c39 0 77 -8 108 -24c93 -47 100 -176 12 -229c-30 -18 -69 -22 -116 -22h-170v-93c0 -20 5 -40 17 -57c23 -32 63 -49 101 -56c63 -12 146 0 192 49zM206 10c51 0 134 16 176 67c-7 15 -10 34 -10 52v128h-170c-47 0 -82 -10 -108 -25
c-76 -47 -70 -158 11 -199c29 -15 65 -23 101 -23zM388 236h170c47 0 83 4 108 20c76 46 70 160 -10 202c-30 15 -66 22 -102 22c-23 0 -47 -3 -69 -9c-50 -13 -97 -46 -97 -103v-132z" />
    <glyph glyph-name="ccedilla" unicode="&#xe7;" horiz-adv-x="455" 
d="M395 103h16c-10 -53 -56 -84 -108 -98c-20 -6 -41 -9 -63 -10l-15 -31c29 1 71 -10 69 -43c-2 -49 -81 -46 -111 -23l-1 1l8 11l1 -1c9 -8 30 -14 49 -14c20 1 39 10 39 26c0 31 -54 33 -75 31h-2l21 43c-23 1 -45 4 -66 10c-59 16 -109 53 -109 118v247
c0 64 52 102 109 117c23 7 48 10 73 10s50 -3 73 -10c52 -14 99 -45 108 -98h-16c-10 45 -53 71 -96 83c-22 7 -46 9 -69 9s-47 -2 -69 -9c-50 -13 -98 -46 -98 -103v-245c0 -57 47 -90 98 -104c22 -7 46 -9 69 -9s47 2 69 9c43 12 86 38 96 83z" />
    <glyph glyph-name="egrave" unicode="&#xe8;" horiz-adv-x="449" 
d="M376 64l14 -8c-48 -56 -132 -69 -201 -58c-44 7 -93 27 -120 64c-13 19 -19 41 -19 65v244c0 64 52 100 109 116c23 6 48 9 73 9c39 0 77 -8 108 -24c93 -47 100 -180 12 -233c-30 -18 -69 -26 -116 -26h-170v-87c0 -20 5 -38 17 -55c23 -32 63 -49 101 -56
c63 -12 146 0 192 49zM66 230h170c47 0 83 8 108 24c76 46 70 162 -10 204c-30 15 -66 22 -102 22c-23 0 -47 -3 -69 -9c-50 -13 -97 -46 -97 -103v-138zM190 653h25l35 -70h-16z" />
    <glyph glyph-name="eacute" unicode="&#xe9;" horiz-adv-x="449" 
d="M376 64l14 -8c-48 -56 -132 -69 -201 -58c-44 7 -93 27 -120 64c-13 19 -19 41 -19 65v244c0 64 52 100 109 116c23 6 48 9 73 9c39 0 77 -8 108 -24c93 -47 100 -180 12 -233c-30 -18 -69 -26 -116 -26h-170v-87c0 -20 5 -38 17 -55c23 -32 63 -49 101 -56
c63 -12 146 0 192 49zM66 230h170c47 0 83 8 108 24c76 46 70 162 -10 204c-30 15 -66 22 -102 22c-23 0 -47 -3 -69 -9c-50 -13 -97 -46 -97 -103v-138zM245 652h24l-44 -70h-16z" />
    <glyph glyph-name="ecircumflex" unicode="&#xea;" horiz-adv-x="449" 
d="M376 64l14 -8c-48 -56 -132 -69 -201 -58c-44 7 -93 27 -120 64c-13 19 -19 41 -19 65v244c0 64 52 100 109 116c23 6 48 9 73 9c39 0 77 -8 108 -24c93 -47 100 -180 12 -233c-30 -18 -69 -26 -116 -26h-170v-87c0 -20 5 -38 17 -55c23 -32 63 -49 101 -56
c63 -12 146 0 192 49zM66 230h170c47 0 83 8 108 24c76 46 70 162 -10 204c-30 15 -66 22 -102 22c-23 0 -47 -3 -69 -9c-50 -13 -97 -46 -97 -103v-138zM225 647h22l62 -68h-16l-57 57l-57 -57h-17z" />
    <glyph glyph-name="edieresis" unicode="&#xeb;" horiz-adv-x="449" 
d="M376 64l14 -8c-48 -56 -132 -69 -201 -58c-44 7 -93 27 -120 64c-13 19 -19 41 -19 65v244c0 64 52 100 109 116c23 6 48 9 73 9c39 0 77 -8 108 -24c93 -47 100 -180 12 -233c-30 -18 -69 -26 -116 -26h-170v-87c0 -20 5 -38 17 -55c23 -32 63 -49 101 -56
c63 -12 146 0 192 49zM66 230h170c47 0 83 8 108 24c76 46 70 162 -10 204c-30 15 -66 22 -102 22c-23 0 -47 -3 -69 -9c-50 -13 -97 -46 -97 -103v-138zM147 582v34h24v-34h-24zM289 582v34h24v-34h-24z" />
    <glyph glyph-name="igrave" unicode="&#xec;" horiz-adv-x="145" 
d="M67 496h16v-496h-16v496zM25 659h25l35 -70h-16z" />
    <glyph glyph-name="iacute" unicode="&#xed;" horiz-adv-x="145" 
d="M67 496h16v-496h-16v496zM101 656h24l-44 -70h-16z" />
    <glyph glyph-name="icircumflex" unicode="&#xee;" horiz-adv-x="145" 
d="M67 496h16v-496h-16v496zM64 655h22l62 -68h-16l-57 57l-57 -57h-17z" />
    <glyph glyph-name="idieresis" unicode="&#xef;" horiz-adv-x="145" 
d="M67 496h16v-496h-16v496zM-9 597v34h24v-34h-24zM133 597v34h24v-34h-24z" />
    <glyph glyph-name="ntilde" unicode="&#xf1;" horiz-adv-x="468" 
d="M418 0h-16v365c0 154 -325 150 -332 6v-371h-16v493h16v-71c71 114 348 97 348 -57v-365zM168 591l-10 5c13 35 49 41 76 18c9 -7 17 -16 30 -16c14 0 26 7 33 22l10 -7c-7 -19 -23 -29 -42 -30c-13 0 -23 4 -33 13c-9 8 -18 17 -31 17c-14 0 -26 -8 -33 -22z" />
    <glyph glyph-name="ograve" unicode="&#xf2;" horiz-adv-x="458" 
d="M411 369v-248c0 -94 -108 -127 -185 -126c-76 1 -179 35 -179 126v248c0 168 364 168 364 0zM395 121v248c0 147 -332 146 -332 0v-248c0 -148 332 -149 332 0zM185 649h25l35 -70h-16z" />
    <glyph glyph-name="oacute" unicode="&#xf3;" horiz-adv-x="458" 
d="M411 369v-248c0 -94 -108 -127 -185 -126c-76 1 -179 35 -179 126v248c0 168 364 168 364 0zM395 121v248c0 147 -332 146 -332 0v-248c0 -148 332 -149 332 0zM251 652h24l-44 -70h-16z" />
    <glyph glyph-name="ocircumflex" unicode="&#xf4;" horiz-adv-x="458" 
d="M411 369v-248c0 -94 -108 -127 -185 -126c-76 1 -179 35 -179 126v248c0 168 364 168 364 0zM395 121v248c0 147 -332 146 -332 0v-248c0 -148 332 -149 332 0zM220 650h22l62 -68h-16l-57 57l-57 -57h-17z" />
    <glyph glyph-name="otilde" unicode="&#xf5;" horiz-adv-x="458" 
d="M411 369v-248c0 -94 -108 -127 -185 -126c-76 1 -179 35 -179 126v248c0 168 364 168 364 0zM395 121v248c0 147 -332 146 -332 0v-248c0 -148 332 -149 332 0zM168 591l-10 5c13 35 49 41 76 18c9 -7 17 -16 30 -16c14 0 26 7 33 22l10 -7c-7 -19 -23 -29 -42 -30
c-13 0 -23 4 -33 13c-9 8 -18 17 -31 17c-14 0 -26 -8 -33 -22z" />
    <glyph glyph-name="odieresis" unicode="&#xf6;" horiz-adv-x="458" 
d="M411 369v-248c0 -94 -108 -127 -185 -126c-76 1 -179 35 -179 126v248c0 168 364 168 364 0zM395 121v248c0 147 -332 146 -332 0v-248c0 -148 332 -149 332 0zM152 580v34h24v-34h-24zM294 580v34h24v-34h-24z" />
    <glyph glyph-name="oslash" unicode="&#xf8;" horiz-adv-x="458" 
d="M411 369v-248c0 -94 -108 -127 -185 -126c-38 1 -82 9 -117 29l-38 -62h-19l43 70c-29 20 -48 49 -48 89v248c0 127 208 158 310 92l33 55h19l-39 -64c25 -21 41 -48 41 -83zM63 121c0 -32 15 -58 40 -76l245 403c-91 59 -285 33 -285 -79v-248zM395 121v248
c0 29 -13 52 -34 69l-245 -402c94 -54 279 -26 279 85z" />
    <glyph glyph-name="ugrave" unicode="&#xf9;" horiz-adv-x="473" 
d="M53 491h16v-365c0 -154 325 -149 332 -6v371h16v-492h-16v70c-71 -113 -348 -97 -348 58v364zM199 650h25l35 -70h-16z" />
    <glyph glyph-name="uacute" unicode="&#xfa;" horiz-adv-x="473" 
d="M53 491h16v-365c0 -154 325 -149 332 -6v371h16v-492h-16v70c-71 -113 -348 -97 -348 58v364zM259 652h24l-44 -70h-16z" />
    <glyph glyph-name="ucircumflex" unicode="&#xfb;" horiz-adv-x="473" 
d="M53 491h16v-365c0 -154 325 -149 332 -6v371h16v-492h-16v70c-71 -113 -348 -97 -348 58v364zM231 651h22l62 -68h-16l-57 57l-57 -57h-17z" />
    <glyph glyph-name="udieresis" unicode="&#xfc;" horiz-adv-x="473" 
d="M53 491h16v-365c0 -154 325 -149 332 -6v371h16v-492h-16v70c-71 -113 -348 -97 -348 58v364zM155 582v34h24v-34h-24zM297 582v34h24v-34h-24z" />
    <glyph glyph-name="yacute" unicode="&#xfd;" horiz-adv-x="465" 
d="M418 490v-581c0 -65 -51 -104 -109 -120c-24 -6 -49 -9 -73 -9c-54 0 -124 16 -160 61l14 7c36 -39 94 -53 146 -53c23 0 47 3 69 9c50 14 95 48 96 104v160c-28 -50 -88 -69 -142 -73c-82 -6 -206 23 -206 125v370h16v-370c0 -92 117 -114 189 -109c61 5 143 35 143 109
v370h17zM254 651h24l-44 -70h-16z" />
    <glyph glyph-name="ydieresis" unicode="&#xff;" horiz-adv-x="465" 
d="M418 490v-581c0 -65 -51 -104 -109 -120c-24 -6 -49 -9 -73 -9c-54 0 -124 16 -160 61l14 7c36 -39 94 -53 146 -53c23 0 47 3 69 9c50 14 95 48 96 104v160c-28 -50 -88 -69 -142 -73c-82 -6 -206 23 -206 125v370h16v-370c0 -92 117 -114 189 -109c61 5 143 35 143 109
v370h17zM161 584v34h24v-34h-24zM303 584v34h24v-34h-24z" />
    <glyph glyph-name="ampersand" unicode="&#x26;" horiz-adv-x="615" 
d="M286 364h300v-15h-80v-231c0 -95 -147 -123 -220 -123c-72 0 -220 28 -220 123v124c0 64 89 108 147 114c-58 12 -131 48 -131 115v111c0 82 102 124 204 124c101 0 203 -42 203 -124v-55h-15v55c0 73 -94 108 -188 108s-188 -35 -188 -108v-111c0 -72 94 -107 188 -107z
M490 118v231h-204c-94 0 -204 -35 -204 -107v-124c0 -72 110 -107 204 -107s204 35 204 107z" />
    <glyph glyph-name="sterling" unicode="&#xa3;" horiz-adv-x="633" 
d="M148 357v225c0 82 103 124 204 124c102 0 197 -42 197 -124v-55h-15v55c0 73 -88 108 -182 108s-187 -35 -187 -108v-191v-34h226v-13h-226v-329h5h224c66 0 155 2 155 88v54h14v-54c0 -97 -94 -103 -169 -103h-224h-22h-111v15h111v329h-114v13h114z" />
    </font>
</defs>
</svg>
